<?xml version="1.0" standalone="no"?>
<!DOCTYPE svg PUBLIC "-//W3C//DTD SVG 20010904//EN"
 "http://www.w3.org/TR/2001/REC-SVG-20010904/DTD/svg10.dtd">
<svg version="1.0" xmlns="http://www.w3.org/2000/svg"
 width="320.000000pt" height="320.000000pt" viewBox="0 0 320.000000 320.000000"
 preserveAspectRatio="xMidYMid meet">
<metadata>
Created by potrace 1.14, written by Peter Selinger 2001-2017
</metadata>
<g transform="translate(0.000000,320.000000) scale(0.100000,-0.100000)"
fill="#000000" stroke="none">
<path d="M1126 2542 c-7 -11 -8 -49 -7 -164 l1 -108 483 0 483 0 1 130 c1 73
-3 133 -9 136 -13 9 -946 15 -952 6z"/>
<path d="M1120 2100 l0 -140 193 -2 c105 -2 321 -2 480 0 l287 3 0 134 0 134
-107 3 c-60 2 -276 4 -480 6 l-373 2 0 -140z"/>
<path d="M1123 1897 c-6 -10 -1 -1121 6 -1187 l6 -55 133 -3 132 -3 1 601 c1
330 2 610 2 623 1 22 -1 22 -137 27 -76 3 -140 2 -143 -3z"/>
<path d="M1480 1888 c-5 -627 -6 -1216 -3 -1225 4 -10 40 -13 133 -13 114 0
129 2 134 18 3 9 4 289 3 622 l-2 605 -132 3 c-103 2 -133 0 -133 -10z"/>
<path d="M1815 1888 c-3 -7 -4 -287 -3 -623 l3 -610 130 4 c72 2 131 4 132 5
1 1 3 279 3 616 l1 615 -130 3 c-100 2 -133 -1 -136 -10z"/>
</g>
</svg>
